<?xml version="1.0" encoding="UTF-8"?>
<svg version="1.1" xmlns="http://www.w3.org/2000/svg" width="75" height="73">
<path d="M0 0 C5.4805479 4.37428916 6.16551796 10.33121557 7 17 C6.95322915 21.74724079 6.52553236 26.27020876 6 31 C-1.59 31 -9.18 31 -17 31 C-19.79750994 25.40498013 -18.66321362 15.79374443 -17.24609375 9.82421875 C-15.5440028 5.31868388 -14.14123987 2.63174213 -10 0 C-6.19426871 -1.2685771 -3.89430952 -0.88817586 0 0 Z M-12 6 C-11.67 6.99 -11.34 7.98 -11 9 C-8.63386544 10.18306728 -7.13219264 10.13354608 -4.5 10.125 C-3.7059375 10.12757812 -2.911875 10.13015625 -2.09375 10.1328125 C0.05918534 10.13277996 0.05918534 10.13277996 2 9 C0.75023244 5.34683329 0.32901247 4.21934164 -3 2 C-7.53250052 1.30269223 -9.11158824 2.57669718 -12 6 Z M-6 18 C-6.33 18.99 -6.66 19.98 -7 21 C-6.01 22.485 -6.01 22.485 -5 24 C-5 22.02 -5 20.04 -5 18 C-5.33 18 -5.66 18 -6 18 Z " fill="#FFFFFF" transform="translate(43,23)"/>
<path d="M0 0 C0.99 0.33 1.98 0.66 3 1 C2.9375 3.25 2.9375 3.25 2 6 C0.31485048 6.92518013 -1.37326881 7.84575712 -3.08203125 8.7265625 C-7.59318982 11.72175128 -10.48622456 16.48142248 -11.55859375 21.73828125 C-11.72111823 23.46604146 -11.83753051 25.19914269 -11.89453125 26.93359375 C-12 29 -12 29 -13 31 C-13.99 30.67 -14.98 30.34 -16 30 C-15.54464904 17.61445387 -11.79465631 10.7043621 -3 2 C-2.01 1.34 -1.02 0.68 0 0 Z " fill="#FFFFFF" transform="translate(26,12)"/>
<path d="M0 0 C3 2 3 2 4.1875 4.6875 C6.8762773 9.6014723 10.75441126 13.71040295 16.0546875 15.81640625 C18.01635612 16.30109869 20.00945346 16.65244425 22 17 C23.33800197 17.35798535 24.67181451 17.73215641 26 18.125 C26.99 18.41375 27.98 18.7025 29 19 C28.67 19.66 28.34 20.32 28 21 C18.16780014 21.71506908 11.52733631 17.9394539 4.0234375 11.8046875 C1.27633101 9.3545655 -0.92164139 7.0482593 -3 4 C-2.67 3.01 -2.34 2.02 -2 1 C-1.34 0.67 -0.68 0.34 0 0 Z " fill="#FFFFFF" transform="translate(13,46)"/>
<path d="M0 0 C8.99665072 -0.86138145 15.18030616 1.31672227 22.3359375 6.78515625 C25.38334011 9.37599854 27.77058977 11.65588466 30 15 C29.625 17.1875 29.625 17.1875 29 19 C27.68 19 26.36 19 25 19 C24.76925781 18.46890625 24.53851563 17.9378125 24.30078125 17.390625 C21.49740349 11.31848661 18.73552681 8.39357026 12.6875 5.3125 C8.65792375 3.87824405 5.24380029 3.37226318 1 3 C0.67 2.01 0.34 1.02 0 0 Z " fill="#FFFFFF" transform="translate(34,12)"/>
<path d="M0 0 C0.33 0 0.66 0 1 0 C1.65854129 10.9756882 0.07385593 16.60839249 -7.0625 24.875 C-9.3212328 27.36350792 -11.18482404 29.12321603 -14 31 C-16.1875 30.625 -16.1875 30.625 -18 30 C-17.67 28.35 -17.34 26.7 -17 25 C-15.989375 24.896875 -14.97875 24.79375 -13.9375 24.6875 C-8.96782976 23.24599322 -7.02613186 19.44180799 -4.51171875 15.17578125 C-2.18608902 10.29015601 -0.97196281 5.3041399 0 0 Z " fill="#FFFFFF" transform="translate(63,35)"/>
</svg>
